<svg width="42" height="14" viewBox="0 0 42 14" fill="none" xmlns="http://www.w3.org/2000/svg">
<path d="M0.755859 13V10.8555L4.85156 6.62793C5.33789 6.09473 5.70117 5.61133 5.94141 5.17773C6.1875 4.74414 6.31055 4.38086 6.31055 4.08789C6.31055 3.56641 6.19922 3.18262 5.97656 2.93652C5.75977 2.69043 5.4375 2.56738 5.00977 2.56738C4.74609 2.56738 4.51172 2.64941 4.30664 2.81348C4.10156 2.97754 3.94043 3.2002 3.82324 3.48145C3.70605 3.7627 3.64746 4.07324 3.64746 4.41309H0.483398C0.483398 3.61621 0.679688 2.88379 1.07227 2.21582C1.4707 1.54199 2.02148 1.00879 2.72461 0.616211C3.42773 0.217773 4.21875 0.0185547 5.09766 0.0185547C6.5332 0.0185547 7.62012 0.34668 8.3584 1.00293C9.09668 1.65332 9.46582 2.59082 9.46582 3.81543C9.46582 4.41309 9.3457 4.98145 9.10547 5.52051C8.86523 6.05371 8.52832 6.58398 8.09473 7.11133C7.66113 7.63867 7.06055 8.29199 6.29297 9.07129L4.92188 10.4512H9.75586V13H0.755859ZM20.2412 7.84961C20.2412 8.99219 20.0508 9.96484 19.6699 10.7676C19.2949 11.5645 18.7676 12.165 18.0879 12.5693C17.4082 12.9736 16.623 13.1758 15.7324 13.1758C14.8301 13.1758 14.0361 12.9736 13.3506 12.5693C12.6709 12.165 12.1406 11.5645 11.7598 10.7676C11.3848 9.9707 11.1973 8.99805 11.1973 7.84961V5.37988C11.1973 4.23145 11.3848 3.25586 11.7598 2.45312C12.1406 1.65039 12.668 1.04688 13.3418 0.642578C14.0215 0.232422 14.8125 0.0273438 15.7148 0.0273438C16.6055 0.0273438 17.3906 0.232422 18.0703 0.642578C18.7559 1.05273 19.2891 1.65918 19.6699 2.46191C20.0508 3.26465 20.2412 4.2373 20.2412 5.37988V7.84961ZM17.0859 4.98438C17.0859 4.12891 16.9658 3.51367 16.7256 3.13867C16.4912 2.76367 16.1543 2.57617 15.7148 2.57617C15.2637 2.57617 14.9209 2.76367 14.6865 3.13867C14.458 3.50781 14.3438 4.12305 14.3438 4.98438V8.22754C14.3438 9.10645 14.4609 9.72754 14.6953 10.0908C14.9297 10.4482 15.2754 10.627 15.7324 10.627C16.1719 10.627 16.5059 10.4453 16.7344 10.082C16.9688 9.71875 17.0859 9.10059 17.0859 8.22754V4.98438ZM25.2861 13V3.9209L22.4121 4.67676V2.21582L28.1602 0.220703H28.4326V13H25.2861ZM39.2607 6.4082C39.8701 6.70703 40.3418 7.11719 40.6758 7.63867C41.0156 8.16016 41.1855 8.7666 41.1855 9.45801C41.1855 10.2666 40.9951 10.9492 40.6143 11.5059C40.2334 12.0625 39.7031 12.4814 39.0234 12.7627C38.3496 13.0381 37.5703 13.1758 36.6855 13.1758C35.8008 13.1758 35.0156 13.0381 34.3301 12.7627C33.6445 12.4814 33.1055 12.0625 32.7129 11.5059C32.3262 10.9492 32.1328 10.2666 32.1328 9.45801C32.1328 8.7666 32.3057 8.16016 32.6514 7.63867C32.9971 7.11719 33.4775 6.7041 34.0928 6.39941C33.5596 6.10645 33.1436 5.72559 32.8447 5.25684C32.5518 4.78223 32.4053 4.24609 32.4053 3.64844C32.4053 2.875 32.584 2.21582 32.9414 1.6709C33.3047 1.12598 33.8057 0.71582 34.4443 0.44043C35.0889 0.15918 35.8271 0.0185547 36.6592 0.0185547C37.5029 0.0185547 38.2441 0.15918 38.8828 0.44043C39.5273 0.71582 40.0283 1.12598 40.3857 1.6709C40.749 2.21582 40.9307 2.875 40.9307 3.64844C40.9307 4.25195 40.7842 4.79102 40.4912 5.26562C40.2041 5.73438 39.7939 6.11523 39.2607 6.4082ZM36.6592 2.56738C36.3018 2.56738 36.0293 2.67871 35.8418 2.90137C35.6602 3.11816 35.5693 3.43164 35.5693 3.8418C35.5693 4.25781 35.6631 4.58594 35.8506 4.82617C36.0381 5.06641 36.3164 5.18652 36.6855 5.18652C37.0488 5.18652 37.3213 5.06641 37.5029 4.82617C37.6904 4.58594 37.7842 4.25781 37.7842 3.8418C37.7842 3.43164 37.6904 3.11816 37.5029 2.90137C37.3154 2.67871 37.0342 2.56738 36.6592 2.56738ZM36.6855 10.627C37.084 10.627 37.4062 10.4951 37.6523 10.2314C37.8984 9.96777 38.0215 9.61328 38.0215 9.16797C38.0215 8.70508 37.8984 8.35059 37.6523 8.10449C37.4121 7.8584 37.084 7.73535 36.668 7.73535C36.252 7.73535 35.918 7.8584 35.666 8.10449C35.4199 8.35059 35.2969 8.70508 35.2969 9.16797C35.2969 9.61328 35.4258 9.96777 35.6836 10.2314C35.9414 10.4951 36.2754 10.627 36.6855 10.627Z" fill="white"/>
</svg>
