<svg width="42" height="14" viewBox="0 0 42 14" fill="none" xmlns="http://www.w3.org/2000/svg">
<path d="M0.755859 13V10.8555L4.85156 6.62793C5.33789 6.09473 5.70117 5.61133 5.94141 5.17773C6.1875 4.74414 6.31055 4.38086 6.31055 4.08789C6.31055 3.56641 6.19922 3.18262 5.97656 2.93652C5.75977 2.69043 5.4375 2.56738 5.00977 2.56738C4.74609 2.56738 4.51172 2.64941 4.30664 2.81348C4.10156 2.97754 3.94043 3.2002 3.82324 3.48145C3.70605 3.7627 3.64746 4.07324 3.64746 4.41309H0.483398C0.483398 3.61621 0.679688 2.88379 1.07227 2.21582C1.4707 1.54199 2.02148 1.00879 2.72461 0.616211C3.42773 0.217773 4.21875 0.0185547 5.09766 0.0185547C6.5332 0.0185547 7.62012 0.34668 8.3584 1.00293C9.09668 1.65332 9.46582 2.59082 9.46582 3.81543C9.46582 4.41309 9.3457 4.98145 9.10547 5.52051C8.86523 6.05371 8.52832 6.58398 8.09473 7.11133C7.66113 7.63867 7.06055 8.29199 6.29297 9.07129L4.92188 10.4512H9.75586V13H0.755859ZM20.2412 7.84961C20.2412 8.99219 20.0508 9.96484 19.6699 10.7676C19.2949 11.5645 18.7676 12.165 18.0879 12.5693C17.4082 12.9736 16.623 13.1758 15.7324 13.1758C14.8301 13.1758 14.0361 12.9736 13.3506 12.5693C12.6709 12.165 12.1406 11.5645 11.7598 10.7676C11.3848 9.9707 11.1973 8.99805 11.1973 7.84961V5.37988C11.1973 4.23145 11.3848 3.25586 11.7598 2.45312C12.1406 1.65039 12.668 1.04688 13.3418 0.642578C14.0215 0.232422 14.8125 0.0273438 15.7148 0.0273438C16.6055 0.0273438 17.3906 0.232422 18.0703 0.642578C18.7559 1.05273 19.2891 1.65918 19.6699 2.46191C20.0508 3.26465 20.2412 4.2373 20.2412 5.37988V7.84961ZM17.0859 4.98438C17.0859 4.12891 16.9658 3.51367 16.7256 3.13867C16.4912 2.76367 16.1543 2.57617 15.7148 2.57617C15.2637 2.57617 14.9209 2.76367 14.6865 3.13867C14.458 3.50781 14.3438 4.12305 14.3438 4.98438V8.22754C14.3438 9.10645 14.4609 9.72754 14.6953 10.0908C14.9297 10.4482 15.2754 10.627 15.7324 10.627C16.1719 10.627 16.5059 10.4453 16.7344 10.082C16.9688 9.71875 17.0859 9.10059 17.0859 8.22754V4.98438ZM21.709 13V10.8555L25.8047 6.62793C26.291 6.09473 26.6543 5.61133 26.8945 5.17773C27.1406 4.74414 27.2637 4.38086 27.2637 4.08789C27.2637 3.56641 27.1523 3.18262 26.9297 2.93652C26.7129 2.69043 26.3906 2.56738 25.9629 2.56738C25.6992 2.56738 25.4648 2.64941 25.2598 2.81348C25.0547 2.97754 24.8936 3.2002 24.7764 3.48145C24.6592 3.7627 24.6006 4.07324 24.6006 4.41309H21.4365C21.4365 3.61621 21.6328 2.88379 22.0254 2.21582C22.4238 1.54199 22.9746 1.00879 23.6777 0.616211C24.3809 0.217773 25.1719 0.0185547 26.0508 0.0185547C27.4863 0.0185547 28.5732 0.34668 29.3115 1.00293C30.0498 1.65332 30.4189 2.59082 30.4189 3.81543C30.4189 4.41309 30.2988 4.98145 30.0586 5.52051C29.8184 6.05371 29.4814 6.58398 29.0479 7.11133C28.6143 7.63867 28.0137 8.29199 27.2461 9.07129L25.875 10.4512H30.709V13H21.709ZM41.1943 7.84961C41.1943 8.99219 41.0039 9.96484 40.623 10.7676C40.248 11.5645 39.7207 12.165 39.041 12.5693C38.3613 12.9736 37.5762 13.1758 36.6855 13.1758C35.7832 13.1758 34.9893 12.9736 34.3037 12.5693C33.624 12.165 33.0938 11.5645 32.7129 10.7676C32.3379 9.9707 32.1504 8.99805 32.1504 7.84961V5.37988C32.1504 4.23145 32.3379 3.25586 32.7129 2.45312C33.0938 1.65039 33.6211 1.04688 34.2949 0.642578C34.9746 0.232422 35.7656 0.0273438 36.668 0.0273438C37.5586 0.0273438 38.3438 0.232422 39.0234 0.642578C39.709 1.05273 40.2422 1.65918 40.623 2.46191C41.0039 3.26465 41.1943 4.2373 41.1943 5.37988V7.84961ZM38.0391 4.98438C38.0391 4.12891 37.9189 3.51367 37.6787 3.13867C37.4443 2.76367 37.1074 2.57617 36.668 2.57617C36.2168 2.57617 35.874 2.76367 35.6396 3.13867C35.4111 3.50781 35.2969 4.12305 35.2969 4.98438V8.22754C35.2969 9.10645 35.4141 9.72754 35.6484 10.0908C35.8828 10.4482 36.2285 10.627 36.6855 10.627C37.125 10.627 37.459 10.4453 37.6875 10.082C37.9219 9.71875 38.0391 9.10059 38.0391 8.22754V4.98438Z" fill="white"/>
</svg>
